# xmcd
#
# Track frame offsets:
#	150
#	19053
#	36678
#	66756
#	98106
#	120231
#	138231
#	169584
#	198984
#	226284
#
# Disc length: 3407 seconds
#
# Revision: 1
# Processed by: cddbd v1.4PL0 Copyright (c) Steve Scherf et al.
# Submitted via: audiograbber 1.81.01
#
DISCID=7f0d4d0a
DTITLE=Brandy - Full Moon - The Remixes
DYEAR=2002
DGENRE=R&B
TTITLE0=Brandy - Full Moon [Album Version]
TTITLE1=Brandy - Full Moon [Cutfather and Joe Remix]
TTITLE2=Brandy - Full Moon [Robbie Rivera Freeze Mix]
TTITLE3=Brandy - Full Moon [Full Intention Club Mix]
TTITLE4=Brandy - Full Moon [Damien Mendis Remix feat. Fat Joe]
TTITLE5=Brandy - Full Moon [Damien Mendis Remix]
TTITLE6=Brandy - Full Moon [Full Intention Club Mix]
TTITLE7=Brandy - Full Moon [Rascal Extended Mix]
TTITLE8=Brandy - Full Moon [Rascal Dub]
TTITLE9=Brandy - Full Moon [Andrea G-brasc Rascal Revisited]
EXTD=an AG-brasc special prod.
EXTT0=
EXTT1=
EXTT2=
EXTT3=
EXTT4=
EXTT5=
EXTT6=
EXTT7=
EXTT8=
EXTT9=
PLAYORDER=
